<mxfile host="Electron" agent="Mozilla/5.0 (Macintosh; Intel Mac OS X 10_15_7) AppleWebKit/537.36 (KHTML, like Gecko) draw.io/24.7.8 Chrome/128.0.6613.36 Electron/32.0.1 Safari/537.36" version="24.7.8">
  <diagram name="Architecture" id="Dg62Ua1TuwoTIQdcb1hB">
    <mxGraphModel dx="1735" dy="1125" grid="1" gridSize="10" guides="1" tooltips="1" connect="1" arrows="1" fold="1" page="1" pageScale="1" pageWidth="900" pageHeight="1600" math="0" shadow="0">
      <root>
        <mxCell id="0" />
        <mxCell id="1" parent="0" />
        <mxCell id="F31nwYpGY14eYsjtRlNV-1" value="Configuration" style="swimlane;fontStyle=0;childLayout=stackLayout;horizontal=1;startSize=30;horizontalStack=0;resizeParent=1;resizeParentMax=0;resizeLast=0;collapsible=1;marginBottom=0;fillColor=#d5e8d4;strokeColor=#82b366;" vertex="1" parent="1">
          <mxGeometry x="250" y="230" width="160" height="90" as="geometry" />
        </mxCell>
        <mxCell id="F31nwYpGY14eYsjtRlNV-2" value="config.yaml" style="text;strokeColor=none;fillColor=none;align=left;verticalAlign=middle;spacingLeft=4;spacingRight=4;overflow=hidden;points=[[0,0.5],[1,0.5]];portConstraint=eastwest;rotatable=0;" vertex="1" parent="F31nwYpGY14eYsjtRlNV-1">
          <mxGeometry y="30" width="160" height="30" as="geometry" />
        </mxCell>
        <mxCell id="F31nwYpGY14eYsjtRlNV-3" value=".env" style="text;strokeColor=none;fillColor=none;align=left;verticalAlign=middle;spacingLeft=4;spacingRight=4;overflow=hidden;points=[[0,0.5],[1,0.5]];portConstraint=eastwest;rotatable=0;" vertex="1" parent="F31nwYpGY14eYsjtRlNV-1">
          <mxGeometry y="60" width="160" height="30" as="geometry" />
        </mxCell>
        <mxCell id="F31nwYpGY14eYsjtRlNV-4" value="Main Orchestrator&#xa;(main.py)" style="rounded=0;whiteSpace=wrap;html=1;fillColor=#dae8fc;strokeColor=#6c8ebf;" vertex="1" parent="1">
          <mxGeometry x="640" y="230" width="160" height="60" as="geometry" />
        </mxCell>
        <mxCell id="F31nwYpGY14eYsjtRlNV-5" value="Research Module&#xa;(research_google.py)" style="rounded=1;whiteSpace=wrap;html=1;fillColor=#fff2cc;strokeColor=#d6b656;" vertex="1" parent="1">
          <mxGeometry x="250" y="390" width="160" height="60" as="geometry" />
        </mxCell>
        <mxCell id="F31nwYpGY14eYsjtRlNV-6" value="Content Generator&#xa;(content_generation.py)" style="rounded=1;whiteSpace=wrap;html=1;fillColor=#fff2cc;strokeColor=#d6b656;" vertex="1" parent="1">
          <mxGeometry x="490" y="390" width="160" height="60" as="geometry" />
        </mxCell>
        <mxCell id="F31nwYpGY14eYsjtRlNV-7" value="Image Designer&#xa;(image_design.py)" style="rounded=1;whiteSpace=wrap;html=1;fillColor=#fff2cc;strokeColor=#d6b656;" vertex="1" parent="1">
          <mxGeometry x="730" y="390" width="160" height="60" as="geometry" />
        </mxCell>
        <mxCell id="F31nwYpGY14eYsjtRlNV-8" value="Notification System&#xa;(notifications.py)" style="rounded=1;whiteSpace=wrap;html=1;fillColor=#fff2cc;strokeColor=#d6b656;" vertex="1" parent="1">
          <mxGeometry x="970" y="390" width="160" height="60" as="geometry" />
        </mxCell>
        <mxCell id="F31nwYpGY14eYsjtRlNV-9" value="External Services" style="swimlane;fontStyle=0;childLayout=stackLayout;horizontal=1;startSize=30;horizontalStack=0;resizeParent=1;resizeParentMax=0;resizeLast=0;collapsible=1;marginBottom=0;fillColor=#e1d5e7;strokeColor=#9673a6;" vertex="1" parent="1">
          <mxGeometry x="250" y="550" width="880" height="270" as="geometry" />
        </mxCell>
        <mxCell id="F31nwYpGY14eYsjtRlNV-10" value="Google Search API" style="ellipse;shape=cloud;whiteSpace=wrap;html=1;fillColor=#e1d5e7;strokeColor=#9673a6;" vertex="1" parent="F31nwYpGY14eYsjtRlNV-9">
          <mxGeometry y="30" width="880" height="60" as="geometry" />
        </mxCell>
        <mxCell id="F31nwYpGY14eYsjtRlNV-11" value="DeepSeek API" style="ellipse;shape=cloud;whiteSpace=wrap;html=1;fillColor=#e1d5e7;strokeColor=#9673a6;" vertex="1" parent="F31nwYpGY14eYsjtRlNV-9">
          <mxGeometry y="90" width="880" height="60" as="geometry" />
        </mxCell>
        <mxCell id="F31nwYpGY14eYsjtRlNV-12" value="OpenAI API" style="ellipse;shape=cloud;whiteSpace=wrap;html=1;fillColor=#e1d5e7;strokeColor=#9673a6;" vertex="1" parent="F31nwYpGY14eYsjtRlNV-9">
          <mxGeometry y="150" width="880" height="60" as="geometry" />
        </mxCell>
        <mxCell id="F31nwYpGY14eYsjtRlNV-13" value="Email Service" style="ellipse;shape=cloud;whiteSpace=wrap;html=1;fillColor=#e1d5e7;strokeColor=#9673a6;" vertex="1" parent="F31nwYpGY14eYsjtRlNV-9">
          <mxGeometry y="210" width="880" height="60" as="geometry" />
        </mxCell>
        <mxCell id="F31nwYpGY14eYsjtRlNV-15" value="" style="endArrow=classic;html=1;exitX=0.5;exitY=1;entryX=0.5;entryY=0;" edge="1" parent="1" source="F31nwYpGY14eYsjtRlNV-4" target="F31nwYpGY14eYsjtRlNV-5">
          <mxGeometry width="50" height="50" relative="1" as="geometry" />
        </mxCell>
        <mxCell id="F31nwYpGY14eYsjtRlNV-16" value="" style="endArrow=classic;html=1;exitX=0.5;exitY=1;entryX=0.5;entryY=0;" edge="1" parent="1" source="F31nwYpGY14eYsjtRlNV-4" target="F31nwYpGY14eYsjtRlNV-6">
          <mxGeometry width="50" height="50" relative="1" as="geometry" />
        </mxCell>
        <mxCell id="F31nwYpGY14eYsjtRlNV-17" value="" style="endArrow=classic;html=1;exitX=0.5;exitY=1;entryX=0.5;entryY=0;" edge="1" parent="1" source="F31nwYpGY14eYsjtRlNV-4" target="F31nwYpGY14eYsjtRlNV-7">
          <mxGeometry width="50" height="50" relative="1" as="geometry" />
        </mxCell>
        <mxCell id="F31nwYpGY14eYsjtRlNV-18" value="" style="endArrow=classic;html=1;exitX=0.5;exitY=1;entryX=0.5;entryY=0;" edge="1" parent="1" source="F31nwYpGY14eYsjtRlNV-4" target="F31nwYpGY14eYsjtRlNV-8">
          <mxGeometry width="50" height="50" relative="1" as="geometry" />
        </mxCell>
        <mxCell id="F31nwYpGY14eYsjtRlNV-19" value="SM Bots&lt;br&gt;(instagram_bot.py, twitter_bot.py)" style="rounded=1;whiteSpace=wrap;html=1;fillColor=#fff2cc;strokeColor=#d6b656;" vertex="1" parent="1">
          <mxGeometry x="1190" y="390" width="160" height="60" as="geometry" />
        </mxCell>
        <mxCell id="F31nwYpGY14eYsjtRlNV-20" value="" style="endArrow=classic;html=1;entryX=0.5;entryY=0;entryDx=0;entryDy=0;exitX=0.5;exitY=1;exitDx=0;exitDy=0;" edge="1" parent="1" source="F31nwYpGY14eYsjtRlNV-4" target="F31nwYpGY14eYsjtRlNV-19">
          <mxGeometry width="50" height="50" relative="1" as="geometry">
            <mxPoint x="570" y="290" as="sourcePoint" />
            <mxPoint x="1060" y="400" as="targetPoint" />
          </mxGeometry>
        </mxCell>
        <mxCell id="F31nwYpGY14eYsjtRlNV-24" value="" style="endArrow=classic;html=1;rounded=0;entryX=0;entryY=0.5;entryDx=0;entryDy=0;exitX=1.01;exitY=0.349;exitDx=0;exitDy=0;exitPerimeter=0;" edge="1" parent="1" source="F31nwYpGY14eYsjtRlNV-1" target="F31nwYpGY14eYsjtRlNV-4">
          <mxGeometry width="50" height="50" relative="1" as="geometry">
            <mxPoint x="410" y="280" as="sourcePoint" />
            <mxPoint x="460" y="230" as="targetPoint" />
          </mxGeometry>
        </mxCell>
        <mxCell id="F31nwYpGY14eYsjtRlNV-25" value="&lt;font style=&quot;font-size: 20px;&quot;&gt;&lt;b&gt;AI-Powered SM Manager (Instagram)&lt;/b&gt;&lt;/font&gt;" style="text;html=1;align=center;verticalAlign=middle;whiteSpace=wrap;rounded=0;" vertex="1" parent="1">
          <mxGeometry x="510" y="160" width="480" height="30" as="geometry" />
        </mxCell>
      </root>
    </mxGraphModel>
  </diagram>
</mxfile>
